<svg id="visual" viewBox="0 0 960 540" width="960" height="540" xmlns="http://www.w3.org/2000/svg" xmlns:xlink="http://www.w3.org/1999/xlink" version="1.1"><path d="M0 33L40 34.8C80 36.7 160 40.3 240 40.3C320 40.3 400 36.7 480 36.7C560 36.7 640 40.3 720 39.5C800 38.7 880 33.3 920 30.7L960 28L960 0L920 0C880 0 800 0 720 0C640 0 560 0 480 0C400 0 320 0 240 0C160 0 80 0 40 0L0 0Z" fill="#7b7b73"></path><path d="M0 60L40 60C80 60 160 60 240 61C320 62 400 64 480 64C560 64 640 62 720 59.3C800 56.7 880 53.3 920 51.7L960 50L960 26L920 28.7C880 31.3 800 36.7 720 37.5C640 38.3 560 34.7 480 34.7C400 34.7 320 38.3 240 38.3C160 38.3 80 34.7 40 32.8L0 31Z" fill="#83837b"></path><path d="M0 77L40 78.7C80 80.3 160 83.7 240 85.3C320 87 400 87 480 85.3C560 83.7 640 80.3 720 75.8C800 71.3 880 65.7 920 62.8L960 60L960 48L920 49.7C880 51.3 800 54.7 720 57.3C640 60 560 62 480 62C400 62 320 60 240 59C160 58 80 58 40 58L0 58Z" fill="#8b8b82"></path><path d="M0 147L40 150.5C80 154 160 161 240 159.2C320 157.3 400 146.7 480 139.5C560 132.3 640 128.7 720 132.3C800 136 880 147 920 152.5L960 158L960 58L920 60.8C880 63.7 800 69.3 720 73.8C640 78.3 560 81.7 480 83.3C400 85 320 85 240 83.3C160 81.7 80 78.3 40 76.7L0 75Z" fill="#93938a"></path><path d="M0 212L40 218.2C80 224.3 160 236.7 240 250.2C320 263.7 400 278.3 480 277.5C560 276.7 640 260.3 720 256.7C800 253 880 262 920 266.5L960 271L960 156L920 150.5C880 145 800 134 720 130.3C640 126.7 560 130.3 480 137.5C400 144.7 320 155.3 240 157.2C160 159 80 152 40 148.5L0 145Z" fill="#9b9b92"></path><path d="M0 233L40 237.5C80 242 160 251 240 264.5C320 278 400 296 480 296C560 296 640 278 720 272.7C800 267.3 880 274.7 920 278.3L960 282L960 269L920 264.5C880 260 800 251 720 254.7C640 258.3 560 274.7 480 275.5C400 276.3 320 261.7 240 248.2C160 234.7 80 222.3 40 216.2L0 210Z" fill="#a4a49a"></path><path d="M0 249L40 253.5C80 258 160 267 240 281.5C320 296 400 316 480 318.8C560 321.7 640 307.3 720 301C800 294.7 880 296.3 920 297.2L960 298L960 280L920 276.3C880 272.7 800 265.3 720 270.7C640 276 560 294 480 294C400 294 320 276 240 262.5C160 249 80 240 40 235.5L0 231Z" fill="#aaaaa1"></path><path d="M0 276L40 280.5C80 285 160 294 240 306.7C320 319.3 400 335.7 480 338.5C560 341.3 640 330.7 720 327C800 323.3 880 326.7 920 328.3L960 330L960 296L920 295.2C880 294.3 800 292.7 720 299C640 305.3 560 319.7 480 316.8C400 314 320 294 240 279.5C160 265 80 256 40 251.5L0 247Z" fill="#afafa6"></path><path d="M0 401L40 405.5C80 410 160 419 240 421.7C320 424.3 400 420.7 480 421.5C560 422.3 640 427.7 720 428.5C800 429.3 880 425.7 920 423.8L960 422L960 328L920 326.3C880 324.7 800 321.3 720 325C640 328.7 560 339.3 480 336.5C400 333.7 320 317.3 240 304.7C160 292 80 283 40 278.5L0 274Z" fill="#b4b4ab"></path><path d="M0 444L40 445.8C80 447.7 160 451.3 240 453.2C320 455 400 455 480 458.5C560 462 640 469 720 471.7C800 474.3 880 472.7 920 471.8L960 471L960 420L920 421.8C880 423.7 800 427.3 720 426.5C640 425.7 560 420.3 480 419.5C400 418.7 320 422.3 240 419.7C160 417 80 408 40 403.5L0 399Z" fill="#b8b8b0"></path><path d="M0 471L40 472.8C80 474.7 160 478.3 240 479.2C320 480 400 478 480 481.5C560 485 640 494 720 495.8C800 497.7 880 492.3 920 489.7L960 487L960 469L920 469.8C880 470.7 800 472.3 720 469.7C640 467 560 460 480 456.5C400 453 320 453 240 451.2C160 449.3 80 445.7 40 443.8L0 442Z" fill="#bdbdb6"></path><path d="M0 541L40 541C80 541 160 541 240 541C320 541 400 541 480 541C560 541 640 541 720 541C800 541 880 541 920 541L960 541L960 485L920 487.7C880 490.3 800 495.7 720 493.8C640 492 560 483 480 479.5C400 476 320 478 240 477.2C160 476.3 80 472.7 40 470.8L0 469Z" fill="#c2c2bb"></path></svg>